HIERARCHY
ROOT Hips
{
	OFFSET 0.000000 0.000000 0.000000
	CHANNELS 6 Xposition Yposition Zposition Zrotation Yrotation Xrotation 
	JOINT LHipJoint
	{
		OFFSET 0.000000 0.000000 0.000000
		CHANNELS 3 Zrotation Yrotation Xrotation
		JOINT LeftUpLeg
		{
			OFFSET 1.363060 -1.794630 0.839290
			CHANNELS 3 Zrotation Yrotation Xrotation
			JOINT LeftLeg
			{
				OFFSET 2.448110 -6.726130 0.000000
				CHANNELS 3 Zrotation Yrotation Xrotation
				JOINT LeftFoot
				{
					OFFSET 2.562200 -7.039590 0.000000
					CHANNELS 3 Zrotation Yrotation Xrotation
					JOINT LeftToeBase
					{
						OFFSET 0.157640 -0.433110 2.322550
						CHANNELS 3 Zrotation Yrotation Xrotation
						End Site
						{
							OFFSET 0.000000 0.000000 0.000000
						}
					}
				}
			}
		}
	}
	JOINT RHipJoint
	{
		OFFSET 0.000000 0.000000 0.000000
		CHANNELS 3 Zrotation Yrotation Xrotation
		JOINT RightUpLeg
		{
			OFFSET -1.305520 -1.794630 0.839290
			CHANNELS 3 Zrotation Yrotation Xrotation
			JOINT RightLeg
			{
				OFFSET -2.542530 -6.985550 0.000000
				CHANNELS 3 Zrotation Yrotation Xrotation
				JOINT RightFoot
				{
					OFFSET -2.568260 -7.056230 0.000000
					CHANNELS 3 Zrotation Yrotation Xrotation
					JOINT RightToeBase
					{
						OFFSET -0.164730 -0.452590 2.363150
						CHANNELS 3 Zrotation Yrotation Xrotation
						End Site
						{
							OFFSET 0.000000 0.000000 0.000000
						}
					}
				}
			}
		}
	}
	JOINT LowerBack
	{
		OFFSET 0.000000 0.000000 0.000000
		CHANNELS 3 Zrotation Yrotation Xrotation
		JOINT Spine
		{
			OFFSET 0.028270 2.035590 -0.193380
			CHANNELS 3 Zrotation Yrotation Xrotation
			JOINT Spine1
			{
				OFFSET 0.056720 2.048850 -0.042750
				CHANNELS 3 Zrotation Yrotation Xrotation
				JOINT Neck
				{
					OFFSET 0.000000 0.000000 0.000000
					CHANNELS 3 Zrotation Yrotation Xrotation
					JOINT Neck1
					{
						OFFSET -0.054170 1.746240 0.172020
						CHANNELS 3 Zrotation Yrotation Xrotation
						JOINT Head
						{
							OFFSET 0.104070 1.761360 -0.123970
							CHANNELS 3 Zrotation Yrotation Xrotation
							End Site
							{
								OFFSET 0.000000 0.000000 0.000000
							}
						}
					}
				}
				JOINT LeftShoulder
				{
					OFFSET 0.000000 0.000000 0.000000
					CHANNELS 3 Zrotation Yrotation Xrotation
					JOINT LeftArm
					{
						OFFSET 3.362410 1.200890 -0.311210
						CHANNELS 3 Zrotation Yrotation Xrotation
						JOINT LeftForeArm
						{
							OFFSET 4.983000 -0.000000 -0.000000
							CHANNELS 3 Zrotation Yrotation Xrotation
							JOINT LeftHand
							{
								OFFSET 3.483560 -0.000000 -0.000000
								CHANNELS 3 Zrotation Yrotation Xrotation
								JOINT LeftFingerBase
								{
									OFFSET 0.000000 0.000000 0.000000
									CHANNELS 3 Zrotation Yrotation Xrotation
									JOINT LeftHandIndex1
									{
										OFFSET 0.715260 -0.000000 -0.000000
										CHANNELS 3 Zrotation Yrotation Xrotation
										End Site
										{
											OFFSET 0.000000 0.000000 0.000000
										}
									}
								}
								JOINT LThumb
								{
									OFFSET 0.000000 0.000000 0.000000
									CHANNELS 3 Zrotation Yrotation Xrotation
									End Site
									{
										OFFSET 0.000000 0.000000 0.000000
									}
								}
							}
						}
					}
				}
				JOINT RightShoulder
				{
					OFFSET 0.000000 0.000000 0.000000
					CHANNELS 3 Zrotation Yrotation Xrotation
					JOINT RightArm
					{
						OFFSET -3.136600 1.374050 -0.404650
						CHANNELS 3 Zrotation Yrotation Xrotation
						JOINT RightForeArm
						{
							OFFSET -5.241900 -0.000000 -0.000000
							CHANNELS 3 Zrotation Yrotation Xrotation
							JOINT RightHand
							{
								OFFSET -3.444170 -0.000000 -0.000000
								CHANNELS 3 Zrotation Yrotation Xrotation
								JOINT RightFingerBase
								{
									OFFSET 0.000000 0.000000 0.000000
									CHANNELS 3 Zrotation Yrotation Xrotation
									JOINT RightHandIndex1
									{
										OFFSET -0.622530 -0.000000 -0.000000
										CHANNELS 3 Zrotation Yrotation Xrotation
										End Site
										{
											OFFSET 0.000000 0.000000 0.000000
										}
									}
								}
								JOINT RThumb
								{
									OFFSET 0.000000 0.000000 0.000000
									CHANNELS 3 Zrotation Yrotation Xrotation
									End Site
									{
										OFFSET 0.000000 0.000000 0.000000
									}
								}
							}
						}
					}
				}
			}
		}
	}
}
MOTION
Frames: 7
Frame Time: 0.008333
12.425219 17.369375 -11.039104 -0.768720 -13.065340 11.901379 6.884383 3.727051 -0.529064 -17.597120 -10.729143 -19.542658 0.658922 11.276426 33.352091 -1.086421 11.075460 -17.094418 0.376100 -3.938600 -10.904100 -10.310617 -3.825952 0.213419 19.708339 25.802704 -30.759628 -0.448667 -12.756392 32.358208 1.705828 -17.723062 -5.921233 -0.577700 4.867200 -13.530200 2.304211 0.623976 16.292897 1.107537 1.309254 1.929580 -0.133641 0.847361 1.169947 -6.641433 -2.173054 -13.429795 12.508029 -2.715774 -2.830328 5.880500 -0.945400 -1.560800 2.207844 -12.655619 3.233963 -80.442544 -32.819533 48.965879 134.250843 -46.108225 -98.970284 0.483908 0.111355 40.642496 -73.970443 34.199355 -62.051600 -7.125000 0.000000 0.000000 -78.818300 46.524900 -8.584000 -2.750874 12.204134 5.446848 71.450125 46.904067 34.433192 -93.565795 49.582481 -60.946407 0.199560 -0.177551 19.206474 39.152529 -5.823113 -4.593900 7.125000 0.000000 0.000000 45.498200 -29.596300 25.556400 
12.407391 17.374993 -11.037376 -0.367341 -12.867705 12.072340 6.886327 3.715061 -0.531753 -17.917093 -10.934689 -19.546309 0.552406 11.155986 32.939538 -1.183534 11.391332 -16.803103 0.493000 -4.501700 -12.492500 -10.302521 -3.800221 0.205044 19.195958 25.646494 -31.206070 -0.499495 -12.890828 32.606156 1.720824 -17.823855 -5.984316 -0.527900 4.656000 -12.930100 1.912132 0.635305 16.238041 1.048597 1.278751 1.882431 -0.082607 0.827147 1.096045 -6.673594 -2.284150 -13.514515 12.647657 -2.862243 -2.638987 5.954900 -1.006000 -1.411000 2.219277 -12.734954 3.348707 -80.229496 -34.703652 47.774331 135.263286 -45.406239 -99.702412 0.511591 0.148634 42.887051 -73.349405 33.017078 -60.178200 -7.125000 0.000000 0.000000 -74.962100 45.542600 -2.689700 -2.804726 12.302523 5.234486 71.548165 45.158034 34.765466 -91.160823 49.805855 -58.289240 0.270679 -0.057142 17.755459 44.176146 -6.402151 -6.192300 7.125000 0.000000 0.000000 46.745800 -28.140200 30.291000 
12.390860 17.375426 -11.035539 0.006839 -12.495373 12.189097 6.888773 3.695760 -0.538697 -18.184185 -11.227727 -19.594188 0.491063 11.101790 32.718840 -1.225048 11.542436 -16.667085 0.610000 -4.999100 -13.905900 -10.288131 -3.781858 0.179490 18.770726 25.284403 -31.513413 -0.516509 -12.953930 32.688939 1.741852 -17.928394 -5.944493 -0.567200 4.823500 -13.405800 1.543874 0.599233 16.199682 1.048606 1.190891 1.902224 0.133718 0.776671 1.186877 -6.872129 -2.406200 -13.784071 12.823245 -3.005194 -2.599600 6.079400 -1.050900 -1.290600 2.240251 -12.820981 3.491418 -80.136090 -36.765982 45.859634 135.911644 -44.870355 -100.160191 0.510340 0.175064 44.778071 -73.908313 30.758627 -59.269300 -7.125000 0.000000 0.000000 -68.186200 42.949100 8.293900 -2.845416 12.387982 5.026923 71.679977 43.135646 35.241323 -89.924495 50.038712 -56.951288 0.310626 0.002299 16.706974 48.697613 -7.681490 -8.765700 7.125000 0.000000 0.000000 47.443400 -26.768900 34.683800 
12.361904 17.382449 -11.032838 -0.197074 -11.936155 12.390768 6.885917 3.672972 -0.560562 -17.757318 -11.499968 -19.638933 0.426606 11.025511 32.410606 -1.230371 11.430519 -16.445742 0.612900 -5.010700 -13.939100 -10.304691 -3.781035 0.173613 18.994827 25.280660 -31.612027 -0.537577 -13.016932 32.852283 1.783007 -18.225811 -6.434807 -0.547000 4.738200 -13.163500 1.717396 0.543082 16.107780 1.137132 1.136599 2.006708 0.325267 0.752082 1.458323 -7.055724 -2.497496 -13.934740 13.006937 -3.099344 -2.889064 6.216200 -1.076800 -1.367200 2.267978 -12.880988 3.655081 -79.996683 -38.780830 44.109554 136.172992 -44.557296 -100.357514 0.569061 0.192622 46.545498 -72.468973 30.272933 -56.479100 -7.125000 0.000000 0.000000 -66.597600 42.254400 10.525000 -2.855758 12.439087 4.877393 72.061789 41.084759 35.671718 -89.512417 50.259953 -56.557659 0.315337 0.041544 15.780477 49.407021 -5.835136 -6.958500 7.125000 0.000000 0.000000 46.369900 -24.117700 38.440600 
12.334677 17.390876 -11.034458 -0.324012 -11.262298 12.513666 6.888832 3.651736 -0.582113 -17.419721 -11.887712 -19.646278 0.371202 10.961547 32.144515 -1.279247 11.489611 -16.124289 0.716400 -5.409100 -15.079100 -10.308653 -3.782678 0.162559 19.137756 25.201138 -31.632496 -0.557250 -13.064386 32.995986 1.813308 -18.419506 -7.041958 -0.421100 4.164900 -11.541000 1.927992 0.451738 16.136362 1.210925 1.041437 2.112816 0.441854 0.712813 1.644270 -7.173233 -2.578503 -13.878920 13.131885 -3.180138 -3.310899 6.317800 -1.107200 -1.553500 2.293793 -12.930607 3.823479 -79.674337 -40.583895 42.568976 135.975401 -44.511435 -100.247679 0.667240 0.186678 47.966640 -69.748904 31.455503 -53.330800 -7.125000 0.000000 0.000000 -69.795200 43.926500 4.455900 -2.863506 12.491216 4.737446 72.683168 38.968720 36.080856 -91.102977 50.444403 -58.271480 0.291932 -0.001352 16.117639 53.946845 -6.011048 -8.341200 7.125000 0.000000 0.000000 45.428500 -19.355800 46.595700 
12.312743 17.398763 -11.038888 -0.066719 -10.685325 12.409229 6.882512 3.649386 -0.581030 -17.555171 -12.208183 -19.549051 0.340548 10.916190 31.999391 -1.291003 11.469251 -15.890721 0.808100 -5.737000 -16.023300 -10.284023 -3.781884 0.135066 18.924151 24.877647 -31.565173 -0.575308 -13.081355 33.077672 1.813733 -18.344490 -7.580986 -0.273100 3.361400 -9.286700 1.755276 0.357048 16.490355 1.257175 0.914267 2.167954 0.660809 0.646640 1.572878 -7.265091 -2.643068 -13.776917 13.110722 -3.239504 -3.660483 6.332700 -1.134800 -1.717600 2.326107 -12.978458 3.960131 -79.237665 -41.987894 41.040941 135.302607 -44.743526 -99.802852 0.749076 0.150937 48.761757 -67.341381 33.257682 -51.466000 -7.125000 0.000000 0.000000 -74.273200 45.833800 -3.859300 -2.873244 12.550604 4.623076 73.537048 36.946525 36.532620 -93.180968 50.573207 -60.495041 0.252265 -0.051899 15.947611 57.047532 -5.839686 -8.954000 7.125000 0.000000 0.000000 44.362600 -14.244900 53.632000 
12.285732 17.408379 -11.039212 -0.062389 -10.067896 12.321579 6.868350 3.647478 -0.575927 -17.392202 -12.408666 -19.510581 0.338253 10.895355 31.925992 -1.196885 10.976615 -15.723299 0.684300 -5.288900 -14.734400 -10.274493 -3.789342 0.115775 19.051093 24.597261 -31.388768 -0.589927 -13.084479 33.170427 1.815348 -18.324308 -8.293679 -0.164800 2.615800 -7.210700 1.760495 0.169327 16.921333 1.370966 0.693212 2.193945 0.942802 0.533015 1.443791 -7.142143 -2.616291 -13.856984 12.848299 -3.188465 -3.840259 6.166400 -1.119500 -1.795300 2.381455 -13.013809 4.050342 -78.706661 -42.899733 39.491926 134.260207 -45.193778 -99.072518 0.770087 0.102782 49.404759 -66.723807 34.424069 -51.601500 -7.125000 0.000000 0.000000 -77.003800 46.739300 -8.637900 -2.858215 12.627614 4.531045 74.613088 35.043450 37.139591 -95.824765 50.645985 -63.295195 0.204020 -0.115901 15.405291 58.727477 -5.773295 -9.214000 7.125000 0.000000 0.000000 43.799800 -10.781400 57.837200 
